<svg id="Ebene_1" data-name="Ebene 1" xmlns="http://www.w3.org/2000/svg" viewBox="0 0 24 24"><defs><style>.cls-1{fill:none;}.cls-2{fill:#f53c3c;}</style></defs><rect class="cls-1" width="24" height="24"/><polygon class="cls-2" points="14.88 5.04 9.12 5.04 5.04 9.12 5.04 14.88 9.12 18.96 14.88 18.96 18.96 14.88 18.96 9.12 14.88 5.04"/><path d="M11.3,12.35a2.22,2.22,0,0,1,.68-.94,4.15,4.15,0,0,0,.7-.72,1.17,1.17,0,0,0,.23-.69c0-.65-.3-1-.89-1a.92.92,0,0,0-.66.25,1,1,0,0,0-.27.75H9.29a2.54,2.54,0,0,1,.37-1.37,2.11,2.11,0,0,1,1-.82A3.38,3.38,0,0,1,12,7.57a3.51,3.51,0,0,1,1.45.27,2.06,2.06,0,0,1,.92.8,2.33,2.33,0,0,1,.32,1.27,1.86,1.86,0,0,1-.17.84,2.48,2.48,0,0,1-.43.67c-.18.19-.42.44-.74.73l-.11.1a1.55,1.55,0,0,0-.45.61,2.5,2.5,0,0,0-.14.8H11.1A3.64,3.64,0,0,1,11.3,12.35Zm1.13,2.31a1,1,0,0,1,.36.34,1,1,0,0,1,0,1,1,1,0,0,1-.36.34,1.11,1.11,0,0,1-1,0A.88.88,0,0,1,11,16a1,1,0,0,1,0-1,.88.88,0,0,1,.35-.34,1.1,1.1,0,0,1,1,0Z"/></svg>