<svg id="Ebene_1" data-name="Ebene 1" xmlns="http://www.w3.org/2000/svg" viewBox="0 0 24 24"><defs><style>.cls-1{fill:none;}</style></defs><path class="cls-1" d="M0,0H24V24H0Z"/><rect x="8" y="12" width="8" height="2" transform="translate(-5.68 12.29) rotate(-45)"/><path d="M8.46,21.53a4.94,4.94,0,0,1-3.53-1.46,5,5,0,0,1,0-7.07l2.83-2.83,1.41,1.42L6.34,14.41a3,3,0,0,0,4.25,4.25l2.82-2.83,1.42,1.41L12,20.07A5,5,0,0,1,8.46,21.53Z"/><path d="M16.24,15.83l-1.41-1.42,2.83-2.82a3,3,0,0,0-4.25-4.25l-2.82,2.83L9.17,8.76,12,5.93a5,5,0,0,1,7.07,0,5,5,0,0,1,0,7.07Z"/></svg>