<svg id="Ebene_1" data-name="Ebene 1" xmlns="http://www.w3.org/2000/svg" viewBox="0 0 24 24"><defs><style>.cls-1{fill:none;}.cls-2{fill:#666;stroke:#c1c1c1;stroke-miterlimit:10;}.cls-3{fill:#c1c1c1;}</style></defs><rect class="cls-1" width="24" height="24"/><path class="cls-2" d="M19.85,18.84a.32.32,0,0,1-.29.16H4.44a.32.32,0,0,1-.29-.16.34.34,0,0,1,0-.33L11.71,5.14a.33.33,0,0,1,.58,0l7.56,13.37A.34.34,0,0,1,19.85,18.84Z"/><path class="cls-3" d="M12.52,15.86a1,1,0,0,1,.36.34,1,1,0,0,1,.12.49,1,1,0,0,1-.12.48,1,1,0,0,1-.36.34,1.08,1.08,0,0,1-.52.12,1.12,1.12,0,0,1-.53-.12,1,1,0,0,1-.35-.34,1,1,0,0,1-.12-.48,1,1,0,0,1,.12-.49,1,1,0,0,1,.35-.34,1.12,1.12,0,0,1,.53-.12A1.08,1.08,0,0,1,12.52,15.86Zm-1.26-1-.21-6H13l-.21,6Z"/></svg>